<svg width="27" height="36" viewBox="0 0 27 36" fill="none" xmlns="http://www.w3.org/2000/svg">
<path d="M13.5 0C9.92103 0.00474758 6.49002 1.42859 3.9593 3.9593C1.42859 6.49001 0.00474758 9.92102 0 13.5C0 23.1919 12.5775 35.3306 13.1119 35.8425C13.2158 35.9435 13.3551 36 13.5 36C13.6449 36 13.7842 35.9435 13.8881 35.8425C14.4225 35.3306 27 23.1919 27 13.5C26.9953 9.92102 25.5714 6.49001 23.0407 3.9593C20.51 1.42859 17.079 0.00474758 13.5 0V0ZM13.5 19.6875C12.2762 19.6875 11.0799 19.3246 10.0624 18.6447C9.04488 17.9648 8.25181 16.9985 7.7835 15.8678C7.31518 14.7372 7.19265 13.4931 7.43139 12.2929C7.67014 11.0926 8.25944 9.9901 9.12478 9.12477C9.99011 8.25943 11.0926 7.67013 12.2929 7.43138C13.4931 7.19264 14.7372 7.31517 15.8679 7.78349C16.9985 8.2518 17.9648 9.04487 18.6447 10.0624C19.3246 11.0799 19.6875 12.2762 19.6875 13.5C19.6865 15.1407 19.0343 16.714 17.8741 17.8741C16.714 19.0343 15.1407 19.6865 13.5 19.6875Z" fill="#FE0000"/>
</svg>
