<svg width="70" height="70" viewBox="0 0 70 70" fill="none" xmlns="http://www.w3.org/2000/svg">
<path fill-rule="evenodd" clip-rule="evenodd" d="M0 35C0 15.5909 15.5909 0 35 0C54.4091 0 70 15.5909 70 35C70 54.4091 54.4091 70 35 70C15.5909 70 0 54.4091 0 35ZM29.75 50.4318L55.2045 24.0227C55.8409 23.3864 55.8409 22.4318 55.2045 21.9545L52.9773 19.7273C52.3409 19.0909 51.3864 19.0909 50.75 19.7273H50.5909L29.2727 41.8409C28.9545 42.1591 28.4773 42.1591 28.1591 41.8409L19.4091 32.4545L19.25 32.2955C18.6136 31.6591 17.6591 31.6591 17.0227 32.2955L14.7955 34.5227C14.4773 34.8409 14.3182 35.3182 14.3182 35.6364C14.3182 35.9545 14.4773 36.4318 14.7955 36.75L15.1136 37.0682L27.5227 50.4318C27.6818 50.75 28.1591 50.9091 28.6364 50.9091C29.1136 50.9091 29.4318 50.75 29.75 50.4318Z" fill="#212121"/>
</svg>
