<svg width="24" height="38" viewBox="0 0 24 38" fill="none" xmlns="http://www.w3.org/2000/svg">
<path d="M12 14.9507C15.9415 14.9507 19.1367 11.7555 19.1367 7.81396C19.1367 3.87246 15.9415 0.677246 12 0.677246C8.0585 0.677246 4.86328 3.87246 4.86328 7.81396C4.86328 11.7555 8.0585 14.9507 12 14.9507Z" fill="#FE0000"/>
<path d="M13.9536 17.7721C10.3669 17.4729 7.24932 17.7755 4.56025 19.9951C0.0602618 23.5996 0.926266 28.4528 0.926266 34.39C0.926266 35.9608 2.20431 37.2627 3.799 37.2627C21.1143 37.2627 21.8035 37.8213 22.8302 35.5474C23.167 34.7785 23.0747 35.0229 23.0747 27.6667C23.0747 21.8239 18.0156 17.7721 13.9536 17.7721Z" fill="#FE0000"/>
</svg>
