<svg width="16" height="16" viewBox="0 0 16 16" fill="none" xmlns="http://www.w3.org/2000/svg">
<path d="M7.9992 0C12.418 0 16 3.58204 16 8.0008C16 12.4188 12.418 16.0008 7.9992 16.0008C3.58044 16.0008 1.33979e-07 12.4188 1.33979e-07 8.0008C-0.000799786 3.58204 3.58044 0 7.9992 0ZM7.996 6.59934C7.79997 6.59961 7.61085 6.67185 7.46457 6.80236C7.31829 6.93286 7.22502 7.11253 7.20248 7.30727L7.19688 7.40006L7.20008 11.8012L7.20488 11.8948C7.22743 12.0899 7.32096 12.2699 7.46765 12.4004C7.61433 12.531 7.80393 12.6031 8.00031 12.6029C8.1967 12.6027 8.38615 12.5302 8.53257 12.3994C8.679 12.2685 8.77216 12.0883 8.79432 11.8932L8.79912 11.7996L8.79592 7.39926L8.79032 7.30567C8.7672 7.1111 8.67347 6.93178 8.5269 6.80173C8.38034 6.67168 8.19114 6.59995 7.9952 6.60014L7.996 6.59934ZM8 3.60044C7.73449 3.60044 7.47986 3.70591 7.29211 3.89365C7.10437 4.0814 6.9989 4.33603 6.9989 4.60154C6.9989 4.86705 7.10437 5.12168 7.29211 5.30942C7.47986 5.49717 7.73449 5.60264 8 5.60264C8.26551 5.60253 8.5201 5.49696 8.70777 5.30914C8.89543 5.12132 9.0008 4.86665 9.0007 4.60114C9.00059 4.33563 8.89502 4.08104 8.7072 3.89337C8.51938 3.7057 8.26471 3.60033 7.9992 3.60044H8Z" fill="#404040"/>
</svg>
